<svg width="244" height="22" viewBox="0 0 244 22" fill="none" xmlns="http://www.w3.org/2000/svg">
<path d="M100.447 0H80.2256V4.61264H100.447V0Z" fill="#191919"/>
<path d="M100.447 8.37695H80.2256V12.9896H100.447V8.37695Z" fill="#191919"/>
<path d="M100.447 16.7539H80.2256V21.3005H100.447V16.7539Z" fill="#191919"/>
<path d="M127 0H106.779V4.61264H127V0Z" fill="#191919"/>
<path d="M127 8.37695H106.779V12.9896H127V8.37695Z" fill="#191919"/>
<path d="M127 16.7539H106.779V21.3005H127V16.7539Z" fill="#191919"/>
<path d="M20.2209 4.61264V0H4.5466H0V4.61264V16.7538V21.3004H4.5466H19.9365V16.7538H4.5466V4.61264H20.2209Z" fill="#191919"/>
<path d="M42.5094 0.0151367V16.7537H31.1023V0.0151367H26.5557V16.7537V21.3003H31.1023H42.5094H47.056V16.7537V0.0151367H42.5094Z" fill="#191919"/>
<path d="M73.3277 8.23976H69.9165V0H53.3887V21.3004H73.889V8.23976H73.3251H73.3277ZM57.9378 4.54914H65.3698V8.23976H57.9378V4.54914ZM57.9378 16.7538V12.7864H69.345V16.7538H57.9378Z" fill="#191919"/>
<rect width="107" height="20" transform="translate(137 0.650146)" fill="#1E1E1E"/>
<path d="M151.238 10.4071C151.238 13.1211 149.609 14.7662 147.413 14.7662C145.204 14.7662 143.588 13.117 143.588 10.4071C143.588 7.69296 145.204 6.04794 147.413 6.04794C149.609 6.04794 151.238 7.69296 151.238 10.4071ZM144.869 10.4071C144.869 12.4706 145.954 13.5894 147.413 13.5894C148.872 13.5894 149.957 12.4706 149.957 10.4071C149.957 8.34352 148.872 7.22473 147.413 7.22473C145.954 7.22473 144.869 8.34352 144.869 10.4071ZM152.926 14.6501V6.16396H158.197V7.27446H154.215V9.84766H157.816V10.954H154.215V14.6501H152.926ZM159.869 14.6501V6.16396H165.14V7.27446H161.158V9.84766H164.759V10.954H161.158V14.6501H159.869ZM168.101 6.16396V14.6501H166.812V6.16396H168.101ZM175.811 8.92777C175.604 7.83799 174.697 7.22473 173.619 7.22473C172.157 7.22473 171.071 8.3518 171.071 10.4071C171.071 12.4747 172.161 13.5894 173.619 13.5894C174.684 13.5894 175.588 12.9927 175.811 11.9153H177.112C176.843 13.5935 175.476 14.7662 173.607 14.7662C171.398 14.7662 169.791 13.117 169.791 10.4071C169.791 7.69296 171.407 6.04794 173.607 6.04794C175.405 6.04794 176.822 7.10871 177.112 8.92777H175.811ZM180.03 6.16396V14.6501H178.742V6.16396H180.03ZM182.718 14.6501H181.351L184.401 6.16396H185.897L188.946 14.6501H187.575L186.8 12.4084H183.493L182.718 14.6501ZM183.866 11.3269H186.427L185.18 7.71368H185.113L183.866 11.3269ZM190.261 14.6501V6.16396H191.549V13.5396H195.39V14.6501H190.261ZM204.74 8.39738C204.657 7.61423 203.965 7.16258 202.995 7.16258C201.955 7.16258 201.297 7.69296 201.297 8.41396C201.292 9.21783 202.167 9.53274 202.838 9.69849L203.663 9.91396C204.748 10.1792 206.103 10.7758 206.103 12.3007C206.103 13.7427 204.96 14.791 202.958 14.791C201.056 14.791 199.863 13.8421 199.78 12.3007H201.073C201.147 13.2206 201.968 13.6598 202.954 13.6598C204.04 13.6598 204.823 13.1129 204.827 12.2883C204.823 11.5424 204.127 11.2441 203.219 11.0037L202.221 10.7344C200.853 10.3615 200.008 9.67363 200.008 8.48854C200.008 7.01755 201.313 6.04794 203.024 6.04794C204.748 6.04794 205.954 7.03412 205.987 8.39738H204.74ZM207.308 7.27446V6.16396H213.884V7.27446H211.245V14.6501H209.956V7.27446H207.308ZM222.456 10.4071C222.456 13.1211 220.827 14.7662 218.631 14.7662C216.423 14.7662 214.807 13.117 214.807 10.4071C214.807 7.69296 216.423 6.04794 218.631 6.04794C220.827 6.04794 222.456 7.69296 222.456 10.4071ZM216.087 10.4071C216.087 12.4706 217.173 13.5894 218.631 13.5894C220.09 13.5894 221.175 12.4706 221.175 10.4071C221.175 8.34352 220.09 7.22473 218.631 7.22473C217.173 7.22473 216.087 8.34352 216.087 10.4071ZM224.144 14.6501V6.16396H227.177C229.146 6.16396 230.115 7.26202 230.115 8.82418C230.115 9.96368 229.601 10.8338 228.565 11.2234L230.438 14.6501H228.972L227.248 11.4471H227.173H225.433V14.6501H224.144ZM225.433 10.3366H227.045C228.296 10.3366 228.818 9.78136 228.818 8.82418C228.818 7.867 228.296 7.27031 227.041 7.27031H225.433V10.3366ZM231.779 14.6501V6.16396H237.107V7.27446H233.067V9.84766H236.83V10.954H233.067V13.5396H237.153V14.6501H231.779Z" fill="white"/>
</svg>
