<svg width="48" height="48" viewBox="0 0 48 48" fill="none" xmlns="http://www.w3.org/2000/svg">
<path d="M23.9997 24.0003V14.0005M4 21.5003C4.61215 16.6404 6.9866 12.174 10.673 8.94839C14.3594 5.72278 19.1015 3.96221 23.9997 4.00062C27.2348 4.00405 30.4207 4.79221 33.2842 6.29748C36.1478 7.80275 38.6034 9.9802 40.4405 12.643C42.2776 15.3059 43.4414 18.3746 43.8319 21.586C44.2224 24.7975 43.8281 28.0557 42.6827 31.0812C41.5373 34.1067 39.6751 36.8092 37.2558 38.9569C34.8364 41.1046 31.9322 42.6333 28.7923 43.412C25.6523 44.1907 22.3703 44.196 19.2278 43.4276C16.0854 42.6592 13.1762 41.1399 10.7499 39.0001L4 33.0002" stroke="#1C4797" stroke-width="3" stroke-linecap="square"/>
<path d="M15.4998 32.0002H3V44.5" stroke="#1C4797" stroke-width="3" stroke-linecap="square"/>
</svg>
