<svg width="246" height="42" viewBox="0 0 246 42" fill="none" xmlns="http://www.w3.org/2000/svg">
<path d="M194.567 0H155.398V8.93472H194.567V0Z" fill="white"/>
<path d="M194.567 16.2261H155.398V25.1608H194.567V16.2261Z" fill="white"/>
<path d="M194.567 32.4526H155.398V41.2594H194.567V32.4526Z" fill="white"/>
<path d="M246 0H206.832V8.93472H246V0Z" fill="white"/>
<path d="M246 16.2261H206.832V25.1608H246V16.2261Z" fill="white"/>
<path d="M246 32.4526H206.832V41.2594H246V32.4526Z" fill="white"/>
<path d="M39.1681 8.93472V0H8.80681H0V8.93472V32.4523V41.2591H8.80681H38.6171V32.4523H8.80681V8.93472H39.1681Z" fill="white"/>
<path d="M82.341 0.0297852V32.4526H60.2452V0.0297852H51.4385V32.4526V41.2594H60.2452H82.341H91.1478V32.4526V0.0297852H82.341Z" fill="white"/>
<path d="M142.035 15.9605H135.428V0H103.413V41.2591H143.122V15.9605H142.03H142.035ZM112.225 8.81172H126.621V15.9605H112.225V8.81172ZM112.225 32.4523V24.7673H134.321V32.4523H112.225Z" fill="white"/>
</svg>
